<?xml version="1.0" standalone="no"?><!DOCTYPE svg PUBLIC "-//W3C//DTD SVG 1.1//EN" "http://www.w3.org/Graphics/SVG/1.1/DTD/svg11.dtd"><svg t="1534233159878" class="icon" style="" viewBox="0 0 1024 1024" version="1.1" xmlns="http://www.w3.org/2000/svg" p-id="3065" xmlns:xlink="http://www.w3.org/1999/xlink" width="200" height="200"><defs><style type="text/css"></style></defs><path d="M512 1024C230.4 1024 0 793.6 0 512S230.4 0 512 0s512 230.4 512 512-230.4 512-512 512z" fill="#5BC1ED" p-id="3066"></path><path d="M1024 512c0-33.208-3.312-65.664-9.424-97.152l-261.728-194.072-394.304-2.544V433.84l-55.64-47.072s-41.184-4.256-43.432 1.344c0.68 52.456 1.36 123.072 1.36 123.072l7.136 4.984 2.368 43.432-11.536 2.688 0.68 213.856 226.896 247.192c8.488 0.432 17.032 0.664 25.624 0.664 281.6 0 512-230.4 512-512z" fill="#2399BC" p-id="3067"></path><path d="M721.112 218.048H358.064v541.52h363.048c24.96 0 45.376-20.416 45.376-45.376V245.28c0.008-24.96-20.416-27.232-45.376-27.232" fill="#DFDEDE" p-id="3068"></path><path d="M721.112 764.408H358.064l-4.84-4.84v-541.52l4.84-4.84h363.048c20 0 50.224 0 50.224 32.064v468.92c-0.008 27.696-22.528 50.216-50.224 50.216m-358.208-9.672h358.208c22.352 0 40.544-18.184 40.544-40.536V245.272c0-19.04-13.072-22.392-40.544-22.392H362.904v531.856z" fill="#474341" p-id="3069"></path><path d="M362.72 335.888h399.864V483.4H362.72z" fill="#3AB394" p-id="3070"></path><path d="M639.544 490.624h-281.48l-4.84-4.84V334.52l4.84-4.84h286.624c2.672 0 4.84 2.16 4.84 4.84s-2.16 4.84-4.84 4.84H362.896v141.592h276.648a4.836 4.836 0 1 1 0 9.672M766.496 490.624h-74.752c-2.68 0-4.84-2.16-4.84-4.84s2.16-4.84 4.84-4.84h69.92V339.36h-69.928c-2.68 0-4.84-2.16-4.84-4.84s2.16-4.84 4.84-4.84h74.768l4.84 4.84v151.264l-4.848 4.84z" fill="#474341" p-id="3071"></path><path d="M392.984 749.816a4.87 4.87 0 0 1-4.872-4.872V502.488a4.87 4.87 0 1 1 9.744 0v242.456a4.86 4.86 0 0 1-4.872 4.872M392.984 329.64a4.87 4.87 0 0 1-4.872-4.872v-99.824a4.87 4.87 0 1 1 9.744 0v99.824a4.86 4.86 0 0 1-4.872 4.872" fill="#AEABAA" p-id="3072"></path><path d="M595.688 381.712h-43.592c-2.672 0-4.84-2.16-4.84-4.84s2.16-4.84 4.84-4.84h43.592a4.84 4.84 0 0 1 0 9.68M533.408 381.712h-62.272c-2.672 0-4.84-2.16-4.84-4.84s2.16-4.84 4.84-4.84h62.272a4.84 4.84 0 0 1 0 9.68M455.152 381.712h-28.888c-2.68 0-4.84-2.16-4.84-4.84s2.16-4.84 4.84-4.84h28.888c2.672 0 4.84 2.16 4.84 4.84s-2.168 4.84-4.84 4.84M562.28 414.992h-33.416c-2.672 0-4.84-2.16-4.84-4.84s2.168-4.84 4.84-4.84h33.416c2.672 0 4.84 2.16 4.84 4.84 0 2.68-2.16 4.84-4.84 4.84M514.4 414.992h-88.136c-2.672 0-4.84-2.16-4.84-4.84s2.16-4.84 4.84-4.84H514.4c2.672 0 4.84 2.16 4.84 4.84 0 2.68-2.16 4.84-4.84 4.84M721.112 799.736H358.064l-4.84-4.84v-77.192c0-2.68 2.16-4.84 4.84-4.84 2.672 0 4.84 2.16 4.84 4.84v72.352h358.208c22.352 0 40.544-14.856 40.544-33.128v-41.752c0-2.672 2.16-4.84 4.84-4.84s4.84 2.16 4.84 4.84v41.752c-0.008 23.608-22.528 42.808-50.224 42.808" fill="#474341" p-id="3073"></path><path d="M389.336 772.936c-2.136 29.56 23.6 46.816 46.392 59.544 5.488 3.056 10.416-5.36 4.92-8.416-19.752-11.024-43.432-25.224-41.56-51.12 0.456-6.272-9.296-6.24-9.752-0.008" fill="#3AB394" p-id="3074"></path><path d="M743.536 705.456a4.87 4.87 0 0 1-4.872-4.872v-123.752a4.87 4.87 0 1 1 9.744 0v123.752a4.866 4.866 0 0 1-4.872 4.872" fill="#AEABAA" p-id="3075"></path><path d="M272.64 510.696h27.52v43.816h-27.52z" fill="#3AB394" p-id="3076"></path><path d="M743.536 562a4.87 4.87 0 0 1-4.872-4.872v-39.192a4.872 4.872 0 0 1 9.744 0v39.192a4.866 4.866 0 0 1-4.872 4.872" fill="#AEABAA" p-id="3077"></path><path d="M262.448 381.504h47.648v126.88h-47.648z" fill="#DFDEDE" p-id="3078"></path><path d="M310.088 513.224h-47.64l-4.84-4.84v-126.88l4.84-4.84h47.64l4.84 4.84v126.88l-4.84 4.84z m-42.8-9.672h37.96v-117.208h-37.96v117.208z" fill="#474341" p-id="3079"></path><path d="M262.448 556.64h47.648v215.552h-47.648z" fill="#DFDEDE" p-id="3080"></path><path d="M310.088 777.04h-47.64l-4.84-4.84V556.656l4.84-4.84h47.64l4.84 4.84V772.2l-4.84 4.84z m-42.8-9.68h37.96V561.496h-37.96V767.36z" fill="#474341" p-id="3081"></path><path d="M299.88 561.496h-27.224l-4.84-4.84v-45.952l4.84-4.84h27.224l4.84 4.84v45.952l-4.84 4.84z m-22.384-9.68h17.544v-36.28h-17.544v36.28z" fill="#474341" p-id="3082"></path><path d="M299.88 530.952h-27.216c-2.68 0-4.84-2.16-4.84-4.84 0-2.68 2.16-4.84 4.84-4.84h27.216c2.672 0 4.84 2.16 4.84 4.84a4.846 4.846 0 0 1-4.84 4.84M296.856 546.072h-24.2a4.836 4.836 0 0 1-4.84-4.84c0-2.68 2.16-4.84 4.84-4.84h24.2c2.672 0 4.84 2.16 4.84 4.84 0 2.68-2.16 4.84-4.84 4.84" fill="#474341" p-id="3083"></path><path d="M272.64 772.24h27.232v13H272.64z" fill="#3AB394" p-id="3084"></path><path d="M299.88 790.04h-27.224l-4.84-4.84v-13l4.84-4.84h27.224l4.84 4.84v13l-4.84 4.84z m-22.384-9.68h17.544v-3.32h-17.544v3.32zM253.2 525.128h-1.552a14.1 14.1 0 0 1-14.088-14.088v-103.072a14.092 14.092 0 0 1 14.088-14.08h1.552c7.768 0 14.088 6.312 14.088 14.08 0 2.68-2.16 4.84-4.84 4.84a4.836 4.836 0 0 1-4.84-4.84 4.416 4.416 0 0 0-4.408-4.408h-1.552a4.416 4.416 0 0 0-4.408 4.408v103.072c0 2.432 1.976 4.408 4.408 4.408h1.552a4.84 4.84 0 0 1 0 9.68M687.328 764.408h-42.64l-4.84-4.84v-541.52l4.84-4.84h42.64l4.84 4.84v541.52l-4.84 4.84z m-37.8-9.672h32.96V222.888h-32.96v531.848z" fill="#474341" p-id="3085"></path><path d="M666.008 764.408a4.836 4.836 0 0 1-4.84-4.84v-541.52c0-2.672 2.16-4.84 4.84-4.84s4.84 2.16 4.84 4.84v541.528a4.83 4.83 0 0 1-4.84 4.832" fill="#474341" p-id="3086"></path></svg>