<?xml version="1.0" standalone="no"?><!DOCTYPE svg PUBLIC "-//W3C//DTD SVG 1.1//EN" "http://www.w3.org/Graphics/SVG/1.1/DTD/svg11.dtd"><svg t="1534233194906" class="icon" style="" viewBox="0 0 1024 1024" version="1.1" xmlns="http://www.w3.org/2000/svg" p-id="3526" xmlns:xlink="http://www.w3.org/1999/xlink" width="200" height="200"><defs><style type="text/css"></style></defs><path d="M512 1024C230.4 1024 0 793.6 0 512S230.4 0 512 0s512 230.4 512 512-230.4 512-512 512z" fill="#E9495B" p-id="3527"></path><path d="M1024 512c0-35.024-3.576-69.248-10.36-102.344L694.952 233.56l-409.056-7.392s-68.464-10.728-68.464 57.664l33.752 4.104s-2.12 409.624 0.488 436.68c2.6 27.056 37.52 40.392 37.52 40.392l2.056 51.184L481.88 1023.04c9.976 0.576 20.008 0.96 30.12 0.96 281.6 0 512-230.4 512-512z" fill="#AB2D3D" p-id="3528"></path><path d="M289.032 748.634l-0.01-16.78c-13.588-11.792-22.206-29.166-22.206-48.524 0-19.336 8.594-36.69 22.148-48.482l-0.004-5.336a4.344 4.344 0 0 1-0.202-1.246V294h-30.824v416.336c0.002 19.034 12.146 33.836 31.098 38.298z" fill="#DACEB6" p-id="3529"></path><path d="M731.8 699.608a6.2 6.2 0 0 1-1.774 4.34c-0.008 0.008-0.014 0.02-0.024 0.028a6.4 6.4 0 0 1-0.724 0.608c-0.068 0.052-0.128 0.116-0.198 0.164-0.188 0.128-0.396 0.224-0.598 0.332-0.156 0.084-0.302 0.182-0.466 0.252-0.118 0.05-0.246 0.074-0.366 0.118-0.268 0.096-0.534 0.194-0.816 0.254-0.016 0.004-0.036 0.002-0.052 0.006-0.376 0.076-0.76 0.126-1.158 0.13h-0.048v-0.008h-169.52c-3.432 0-6.224-2.784-6.224-6.224s2.784-6.216 6.224-6.216h163.242l-3.506-411.776c0-22.32-20.6-40.44-45.928-40.44l-374.304-4.368c-0.776-0.056-36.008-2.432-55.296 15.992-7.544 7.2-11.736 16.864-12.504 28.752h279.208a6.224 6.224 0 0 1 0 12.448h-135.68l2.192 341.082c13.396 11.788 21.872 29.04 21.872 48.246 0 18.908-8.212 35.934-21.254 47.704l0.126 19.688H669.872l53.304-0.128c0.856 0.048 36.072 2.44 55.376-15.992 7.536-7.192 11.736-16.864 12.504-28.752h-35.504a6.22 6.22 0 0 1-6.216-6.224c0-0.716 0.146-1.392 0.368-2.032l-17.926 0.268 0.014 1.664c0 0.03 0.008 0.056 0.008 0.084z m-49.992-142H611.68c-2.408 0-4.352-1.944-4.352-4.352s1.944-4.352 4.352-4.352h70.128c2.408 0 4.352 1.944 4.352 4.352a4.34 4.34 0 0 1-4.352 4.352z m0-48.488h-145.872c-2.408 0-4.352-1.944-4.352-4.352s1.944-4.352 4.352-4.352h145.88a4.354 4.354 0 0 1-0.008 8.704z m-63.904-57.2h63.904c2.408 0 4.352 1.944 4.352 4.352s-1.944 4.352-4.352 4.352h-63.904c-2.408 0-4.352-1.944-4.352-4.352s1.944-4.352 4.352-4.352z m-60.52-170.36h40.48a6.22 6.22 0 0 1 0 12.44h-40.48a6.22 6.22 0 1 1 0-12.44z m-138.008 126.704h63.904c2.408 0 4.352 1.944 4.352 4.352s-1.944 4.352-4.352 4.352h-63.904c-2.408 0-4.352-1.944-4.352-4.352s1.944-4.352 4.352-4.352z m0 43.656h165.992c2.408 0 4.352 1.944 4.352 4.352s-1.944 4.352-4.352 4.352h-165.992c-2.408 0-4.352-1.944-4.352-4.352s1.944-4.352 4.352-4.352z m0 48.496h70.128a4.352 4.352 0 1 1 0 8.704h-70.128a4.346 4.346 0 0 1-4.352-4.352c0-2.408 1.944-4.352 4.352-4.352z m-4.352 52.84c0-2.408 1.944-4.352 4.352-4.352h132.616c2.408 0 4.352 1.944 4.352 4.352a4.34 4.34 0 0 1-4.352 4.352h-132.616a4.346 4.346 0 0 1-4.352-4.352z" fill="#DACEB6" p-id="3530"></path><path d="M557.384 294h40.48a6.22 6.22 0 1 0 0-12.44h-40.48a6.22 6.22 0 1 0 0 12.44z" fill="#474341" p-id="3531"></path><path d="M797.36 693.4h-41.808a6.196 6.196 0 0 0-5.848 4.192c-0.222 0.64-0.368 1.316-0.368 2.032a6.22 6.22 0 0 0 6.216 6.224h35.504c-0.768 11.888-4.968 21.56-12.504 28.752-19.304 18.432-54.52 16.04-55.376 15.992l-53.304 0.128H374.224l-0.126-19.688c13.042-11.77 21.254-28.796 21.254-47.704 0-19.206-8.476-36.458-21.872-48.246L371.288 294h135.68a6.224 6.224 0 0 0 0-12.448H227.76c0.768-11.888 4.96-21.552 12.504-28.752 19.288-18.424 54.52-16.048 55.296-15.992l374.304 4.368c25.328 0 45.928 18.12 45.928 40.44l3.506 411.776h-163.242c-3.44 0-6.224 2.776-6.224 6.216s2.792 6.224 6.224 6.224h169.52v0.008h0.048c0.396-0.004 0.782-0.054 1.158-0.13 0.016-0.004 0.036-0.002 0.052-0.006 0.282-0.06 0.548-0.158 0.816-0.254 0.12-0.042 0.25-0.068 0.366-0.118 0.164-0.07 0.31-0.17 0.466-0.252 0.202-0.108 0.41-0.204 0.598-0.332 0.072-0.048 0.13-0.112 0.198-0.164 0.254-0.188 0.502-0.382 0.724-0.608 0.008-0.008 0.014-0.02 0.024-0.028a6.2 6.2 0 0 0 1.774-4.34c0-0.028-0.008-0.054-0.008-0.084l-0.014-1.664-3.546-416.292c0-29.128-26.192-52.824-58.304-52.824l-373.824-4.352c-1.648-0.112-41.024-2.864-64.376 19.376-11.456 10.92-17.008 25.784-16.488 44.184a6.212 6.212 0 0 0 6.208 6.048h24.048v416.328c0 25.584 17.4 46.072 43.304 50.992 0.08 0.014 0.16 0.01 0.24 0.022l0.024 41.714a4.368 4.368 0 0 0 4.352 4.352c0.76 0 1.52-0.192 2.208-0.6l37.824-22.264 34.4 22.168a4.36 4.36 0 0 0 4.456 0.152 4.368 4.368 0 0 0 2.256-3.84l-0.256-39.864h295.56c0.028 0 0.052-0.008 0.08-0.008l52.776-0.144c0.36 0.024 2.384 0.16 5.6 0.16 11.984 0 40.352-2 58.76-19.536 11.456-10.92 17.008-25.784 16.488-44.184a6.212 6.212 0 0 0-6.208-6.048zM257.936 294h30.824v334.264c0 0.436 0.084 0.848 0.202 1.246l0.004 5.336c-13.554 11.792-22.148 29.148-22.148 48.482 0 19.358 8.618 36.732 22.206 48.524l0.01 16.78c-18.952-4.462-31.096-19.264-31.096-38.298L257.936 294z m39.528-3.168h34.192v-0.2h34.048v338.586a63.86 63.86 0 0 0-34.048-10.148c-0.19-0.002-0.378-0.014-0.568-0.014a63.888 63.888 0 0 0-33.432 9.4l-0.192-337.624z m33.624 448.056c-30.648 0-55.576-24.928-55.576-55.56 0-30.64 24.928-55.568 55.576-55.568 30.632 0 55.568 24.936 55.568 55.568s-24.936 55.56-55.568 55.56z m0.24 36.8l-33.576 19.76-0.032-57.216a63.838 63.838 0 0 0 29.736 9.252c1.202 0.068 2.412 0.108 3.632 0.108 1.708 0 3.394-0.088 5.07-0.218a63.8 63.8 0 0 0 29.546-9.944v43.956l0.088 13.662-0.088-0.056v0.304l-34.048-18.216v-1.53c-0.108 0.054-0.224 0.076-0.328 0.138z" fill="#474341" p-id="3532"></path><path d="M419.376 460.624h165.992c2.408 0 4.352-1.944 4.352-4.352s-1.944-4.352-4.352-4.352h-165.992c-2.408 0-4.352 1.944-4.352 4.352s1.944 4.352 4.352 4.352zM617.904 460.624h63.904c2.408 0 4.352-1.944 4.352-4.352s-1.944-4.352-4.352-4.352h-63.904c-2.408 0-4.352 1.944-4.352 4.352s1.944 4.352 4.352 4.352zM419.376 509.12h70.128a4.352 4.352 0 1 0 0-8.704h-70.128a4.346 4.346 0 0 0-4.352 4.352c0 2.408 1.944 4.352 4.352 4.352zM681.816 500.416h-145.88c-2.408 0-4.352 1.944-4.352 4.352s1.944 4.352 4.352 4.352h145.872a4.354 4.354 0 1 0 0.008-8.704zM556.344 553.256a4.346 4.346 0 0 0-4.352-4.352h-132.616c-2.408 0-4.352 1.944-4.352 4.352s1.944 4.352 4.352 4.352h132.616a4.34 4.34 0 0 0 4.352-4.352zM681.808 548.904H611.68c-2.408 0-4.352 1.944-4.352 4.352s1.944 4.352 4.352 4.352h70.128a4.34 4.34 0 0 0 4.352-4.352 4.346 4.346 0 0 0-4.352-4.352zM419.376 416.968h63.904c2.408 0 4.352-1.944 4.352-4.352s-1.944-4.352-4.352-4.352h-63.904c-2.408 0-4.352 1.944-4.352 4.352s1.944 4.352 4.352 4.352z" fill="#8B7A5C" p-id="3533"></path><path d="M327.456 767.736v-20.252a63.838 63.838 0 0 1-29.736-9.252l0.032 57.216 33.576-19.76c0.104-0.062 0.22-0.084 0.328-0.138v-3.478a4.336 4.336 0 0 1-4.2-4.336zM365.792 795.048l-0.088-13.662v13.606zM297.656 628.456a63.882 63.882 0 0 1 33.432-9.4c0.19 0 0.378 0.012 0.568 0.014v-34.832c-0.188 0.024-0.374 0.058-0.568 0.058a4.346 4.346 0 0 1-4.352-4.352v-87.376c0-2.408 1.944-4.352 4.352-4.352 0.194 0 0.38 0.032 0.568 0.058v-5.73c-0.188 0.024-0.374 0.056-0.568 0.056a4.346 4.346 0 0 1-4.352-4.352V355.92c0-2.408 1.944-4.352 4.352-4.352 0.194 0 0.38 0.032 0.568 0.058v-3.418c-0.188 0.024-0.374 0.058-0.568 0.058a4.346 4.346 0 0 1-4.352-4.352v-45.536c0-2.408 1.944-4.352 4.352-4.352 0.194 0 0.38 0.032 0.568 0.058v-3.25h-34.192l0.192 337.622z" fill="#E9495B" p-id="3534"></path><path d="M331.656 294.082a4.332 4.332 0 0 1 3.784 4.294v45.536a4.328 4.328 0 0 1-3.784 4.294v3.418a4.332 4.332 0 0 1 3.784 4.294v122.336a4.324 4.324 0 0 1-3.784 4.288v5.73a4.332 4.332 0 0 1 3.784 4.294v87.376a4.328 4.328 0 0 1-3.784 4.294v34.832a63.86 63.86 0 0 1 34.048 10.148V290.632h-34.048v3.45zM365.704 795.296v-57.866a63.822 63.822 0 0 1-29.546 9.944l0.002 0.026v20.336a4.34 4.34 0 0 1-4.352 4.352c-0.052 0-0.1-0.014-0.152-0.016v5.008l34.048 18.216z" fill="#CA3040" p-id="3535"></path><path d="M327.456 767.736c0 2.356 1.864 4.256 4.2 4.336 0.052 0.002 0.1 0.016 0.152 0.016a4.34 4.34 0 0 0 4.352-4.352V747.4l-0.002-0.026c-1.674 0.132-3.362 0.218-5.07 0.218-1.22 0-2.43-0.042-3.632-0.108v20.252zM335.44 343.912v-45.536a4.33 4.33 0 0 0-3.784-4.294c-0.188-0.024-0.374-0.058-0.568-0.058a4.346 4.346 0 0 0-4.352 4.352v45.536c0 2.408 1.944 4.352 4.352 4.352 0.194 0 0.38-0.032 0.568-0.058a4.328 4.328 0 0 0 3.784-4.294zM335.44 478.256V355.92a4.328 4.328 0 0 0-3.784-4.294c-0.188-0.024-0.374-0.058-0.568-0.058a4.346 4.346 0 0 0-4.352 4.352v122.328c0 2.408 1.944 4.352 4.352 4.352 0.194 0 0.38-0.032 0.568-0.056a4.324 4.324 0 0 0 3.784-4.288zM335.44 579.944v-87.376a4.328 4.328 0 0 0-3.784-4.294c-0.188-0.024-0.374-0.058-0.568-0.058a4.346 4.346 0 0 0-4.352 4.352v87.376c0 2.408 1.944 4.352 4.352 4.352 0.194 0 0.38-0.032 0.568-0.058a4.33 4.33 0 0 0 3.784-4.294z" fill="#81191E" p-id="3536"></path><path d="M386.656 683.328c0-30.632-24.936-55.568-55.568-55.568-30.648 0-55.576 24.928-55.576 55.568 0 30.632 24.928 55.56 55.576 55.56 30.632 0 55.568-24.928 55.568-55.56z" fill="#F7BE15" p-id="3537"></path></svg>