<?xml version="1.0" standalone="no"?><!DOCTYPE svg PUBLIC "-//W3C//DTD SVG 1.1//EN" "http://www.w3.org/Graphics/SVG/1.1/DTD/svg11.dtd"><svg t="1536023224510" class="icon" style="" viewBox="0 0 1024 1024" version="1.1" xmlns="http://www.w3.org/2000/svg" p-id="1682" xmlns:xlink="http://www.w3.org/1999/xlink" width="200" height="200"><defs><style type="text/css"></style></defs><path d="M511.78 511.996m-511.78 0a511.78 511.78 0 1 0 1023.56 0 511.78 511.78 0 1 0-1023.56 0Z" fill="#E6E6E6" p-id="1683"></path><path d="M460.23 1021.248L148.338 707.244l674.074-425.998 200.742 202.01c0.424 9.3 0.846 19.02 0.846 28.74 0 282.73-229.058 511.788-511.788 511.788-17.328 0-34.654-0.846-51.56-2.536h-0.422z" fill="#CCCCCC" p-id="1684"></path><path d="M265.826 266.878h528.27c18.906 0 34.232 15.326 34.232 34.232v353.308c0 18.906-15.326 34.232-34.232 34.232H265.826c-18.906 0-34.232-15.326-34.232-34.232V301.11c0-18.906 15.326-34.232 34.232-34.232z" fill="#727271" p-id="1685"></path><path d="M821.99 281.248c3.804 5.494 6.34 12.256 6.34 19.44v353.73c0 18.596-15.214 34.232-34.232 34.232H265.404c-1.69 0-3.804 0-5.494-0.422l561.658-406.98h0.422z" fill="#5B5B5B" p-id="1686"></path><path d="M279.78 300.696h500.38v318.24H279.78z" fill="#FDFDFD" p-id="1687"></path><path d="M529.96 652.736m-22.822 0a22.822 22.822 0 1 0 45.644 0 22.822 22.822 0 1 0-45.644 0Z" fill="#FEFEFE" p-id="1688"></path><path d="M195.672 678.084l85.792 65.082c14.368-20.286 19.018-18.596 37.19-27.892 54.94-27.048 110.726-42.684 67.196-84.1 7.608-8.452 12.678-15.214 9.298-24.934-3.38-10.142-10.988-10.988-18.172-19.018 28.316-44.798-9.298-40.572-25.78-47.756 28.316-39.304 27.47-32.542 60.856-69.732 5.072-5.916 16.482-17.75 19.018-24.512 4.648-10.566-5.072-17.328-13.946-15.214-11.41 2.958-71.844 61.702-84.524 74.804-16.482 16.904-22.398 22.822-41.84 33.81-21.13 12.256-27.47 11.41-40.148 36.346-17.75 34.654-32.118 71.422-55.362 103.118h0.422v-0.002z" fill="#FFC130" p-id="1689"></path><path d="M182.148 662.448l114.952 87.482c2.114 1.69 2.536 5.072 0.846 7.184l-27.892 36.346c-1.69 2.114-5.072 2.536-7.184 0.846l-114.952-87.482c-2.114-1.69-2.536-5.072-0.846-7.184l27.892-36.346c1.69-2.114 5.07-2.536 7.184-0.846z" fill="#006775" p-id="1690"></path><path d="M506.718 363.658v-43.53h8.874v17.328h17.328v-17.328h8.876v43.53h-8.876v-19.018h-17.328v19.018h-8.874z m42.26-21.554c0-4.648 0.846-8.03 2.114-11.41 0.846-2.114 2.536-4.226 4.226-5.916s3.804-2.958 5.494-3.804c2.536-1.268 5.916-1.69 9.298-1.69 6.34 0 11.41 2.114 15.636 5.916 3.804 3.804 5.916 9.72 5.916 16.482 0 7.184-2.114 12.678-5.916 16.482-3.804 3.804-8.874 5.916-15.214 5.916s-11.834-2.114-15.636-5.916c-3.804-3.804-5.916-9.298-5.916-16.482v0.422h-0.002z m8.876-0.422c0 5.072 1.268 8.874 3.38 11.41 2.114 2.536 5.072 3.804 8.874 3.804 3.38 0 6.34-1.268 8.874-3.804 2.114-2.536 3.38-6.34 3.38-11.41s-1.268-8.874-3.38-11.41-5.072-3.804-8.874-3.804c-3.804 0-6.762 1.268-8.874 3.804-2.112 2.534-3.38 6.338-3.38 11.41z m49.868 21.976v-36.346h-13.102v-7.184h34.654v7.184h-12.678v36.346h-8.874z m27.47 0v-43.53h32.118v7.184h-23.666v9.72h21.976v7.184h-21.976v11.834h24.512v7.184h-32.964v0.424z m40.994 0v-43.106h8.876v35.922h21.976v7.184h-30.852z" fill="#E87D04" p-id="1691"></path><path d="M523.622 383.944h166.934c10.566 0 19.44 8.874 19.44 19.44v163.13H504.604v-163.13c0-10.566 8.874-19.44 19.44-19.44h-0.422z" fill="#E6E6E6" p-id="1692"></path><path d="M504.18 560.176h205.4v16.482h-205.4z" fill="#CCCCCC" p-id="1693"></path><path d="M512.212 547.074l2.958 42.684h-13.102l5.916-42.684h4.228z" fill="#663333" p-id="1694"></path><path d="M509.676 494.246c10.566 0 19.44 8.452 19.44 19.44 0 3.804-1.268 7.184-2.958 10.142 9.298 1.268 16.482 9.72 16.482 19.44 0 10.566-8.874 19.44-19.44 19.44-5.494 0-10.142-2.114-13.524-5.494-3.38 4.226-8.452 6.762-13.946 6.762-9.72 0-17.75-8.03-17.75-17.75s8.03-17.75 17.75-17.75h2.114c-4.226-3.38-7.184-8.874-7.184-14.792 0-10.566 8.452-19.44 19.44-19.44l-0.424 0.002z" fill="#17BF41" p-id="1695"></path><path d="M710.842 547.074l2.958 42.684h-13.102l5.916-42.684h4.228z" fill="#663333" p-id="1696"></path><path d="M708.306 494.246c10.566 0 19.44 8.452 19.44 19.44 0 3.804-1.268 7.184-2.958 10.142 9.298 1.268 16.482 9.72 16.482 19.44 0 10.566-8.874 19.44-19.44 19.44-5.494 0-10.142-2.114-13.524-5.494-3.38 4.226-8.452 6.762-13.946 6.762-9.72 0-17.75-8.03-17.75-17.75s8.03-17.75 17.75-17.75h2.114c-4.226-3.38-7.184-8.874-7.184-14.792 0-10.566 8.452-19.44 19.44-19.44l-0.424 0.002z" fill="#17BF41" p-id="1697"></path><path d="M497 574.976h220.18v22.822H497z" fill="#B3B3B3" p-id="1698"></path><path d="M562.92 506.916h88.32v53.25h-88.32zM524.468 441.42h27.048v19.018h-27.048v-19.018z m98.468 0h27.048v19.018h-27.048v-19.018z m39.726 0h27.048v19.018h-27.048v-19.018z m0 31.272h27.048v19.018h-27.048v-19.018z m-39.726 0h27.048v19.018h-27.048v-19.018z m-58.742-31.272h27.048v19.018h-27.048v-19.018z m0 31.272h27.048v19.018h-27.048v-19.018z m-39.726 0h27.048v19.018h-27.048v-19.018z" fill="#999999" p-id="1699"></path><path d="M538.836 395.354l2.958 9.298h9.72l-8.03 5.494 2.958 9.298-8.03-5.494-8.03 5.494 2.958-9.298-8.03-5.494h9.72l2.958-9.298h0.848z m30.006-2.536l3.804 10.988h11.834l-9.298 6.762 3.804 10.988-9.298-6.762-9.298 6.762 3.804-10.988-9.298-6.762h11.834l3.804-10.988h-1.692z m106.076 2.536l-2.958 9.298h-9.72l8.03 5.494-2.958 9.298 8.03-5.916 8.03 5.916-2.958-9.298 8.03-5.494h-9.72l-2.958-9.298h-0.848z m-30.006-2.536l-3.804 10.988h-11.834l9.298 6.762-3.804 10.988 9.298-6.762 9.298 6.762-3.804-10.988 9.298-6.762h-11.834l-3.804-10.988h1.692z m-38.034-2.536l-4.226 13.102h-13.946l10.988 8.03-4.226 13.102 10.988-8.03 10.988 8.03-4.226-13.102 10.988-8.03h-13.946l-4.226-13.102h0.844z" fill="#E87D04" p-id="1700"></path><path d="M533.342 506.502h19.44v15.214h-19.44v-15.214z m127.63 0h19.44v15.214h-19.44v-15.214z" fill="#999999" p-id="1701"></path><path d="M303.44 331.536h165.66v11.834h-165.66zM303.44 362.816h165.66v11.834h-165.66zM303.44 394.076h123.826v11.834H303.44z" fill="#808080" p-id="1702"></path></svg>