<?xml version="1.0" standalone="no"?><!DOCTYPE svg PUBLIC "-//W3C//DTD SVG 1.1//EN" "http://www.w3.org/Graphics/SVG/1.1/DTD/svg11.dtd"><svg t="1536023218867" class="icon" style="" viewBox="0 0 1024 1024" version="1.1" xmlns="http://www.w3.org/2000/svg" p-id="1523" xmlns:xlink="http://www.w3.org/1999/xlink" width="200" height="200"><defs><style type="text/css"></style></defs><path d="M511.83 511.832m-511.83 0a511.83 511.83 0 1 0 1023.66 0 511.83 511.83 0 1 0-1023.66 0Z" fill="#006775" p-id="1524"></path><path d="M472.944 332.874l-80.088-80.088-275.526 165.78 283.106 283.106-121.284 72.836 249.49 249.49C803.512 1015.102 1024 789.668 1024 512.494c0-13.842-0.658-27.356-1.648-40.538l-197.418-197.418-26.036 26.036L732.322 234l-70.53 70.53-80.088-80.088-108.76 108.76v-0.328z" fill="#055661" p-id="1525"></path><path d="M588.626 535.896l1.648 1.648c9.888 10.546 28.014 34.934 32.628 75.142 6.262 56.03-17.14 86.02-17.14 86.02 10.546 4.614 19.446 5.602 27.026 2.638 0 0 18.456-36.252 3.626-95.578-11.864-47.46-34.606-68.882-43.504-75.474v-0.658c0-3.626-2.968-6.262-6.262-6.262-3.626 0-6.262 2.966-6.262 6.262 0 3.626 2.966 6.262 6.262 6.262 0.658 0 1.318 0 1.976-0.33v0.328h0.002z" fill="#E84F4F" p-id="1526"></path><path d="M584.67 526.996s-56.688-17.14-66.904 5.274c-10.216 22.412-15.49 40.538-15.49 40.538l14.83-19.774 0.33 7.91 15.49-16.808-0.658 4.944 18.456-14.502-0.658 5.602 35.264-9.228-0.66-3.956zM587.308 525.678s47.79-31.97 61.302-26.694c13.514 5.602 31.31 26.036 31.31 26.036l-21.752-9.228 2.966 6.59-20.762-6.59 2.638 3.956-22.412-3.296 2.966 4.284-34.934 8.57-0.988-3.626-0.334-0.002z" fill="#38C20E" p-id="1527"></path><path d="M586.978 528.974s36.584-10.546 57.676 5.274 25.048 34.606 25.048 34.606c-8.898-5.932-14.502-14.172-26.366-17.468l1.976 9.228-18.456-16.808v6.262l-15.16-10.216v5.932l-18.128-10.216s-9.888-3.626-6.59-6.92v0.326z" fill="#38C20E" p-id="1528"></path><path d="M584.012 529.304s-36.914 9.888-46.8 34.276c-9.888 24.388-3.626 42.846-3.626 42.846 4.614-9.558 4.944-19.446 13.514-28.674l3.296 8.898 7.25-24.06 3.296 5.274 7.582-16.808 2.966 5.274 10.216-18.128s6.59-8.24 2.308-9.228l-0.002 0.33zM584.67 523.7s-21.092-38.232-28.344-38.232-33.288 26.036-33.288 26.036l-5.274 11.864 18.456-12.196v6.59l17.14-10.876-0.33 5.602s6.59-2.966 13.842 2.638c7.25 5.602 17.138 12.196 17.138 12.196l2.306-1.648-2.306-1.976h0.662v0.002z" fill="#38C20E" p-id="1529"></path><path d="M594.89 481.844c-5.274 5.274-8.57 33.618-8.898 44.492 0 3.296 1.648 0.658 1.648 0.658s3.956-16.808 9.558-17.468c5.274-0.988 8.57 3.296 8.57 3.296l-3.626-9.888c8.57-1.318 16.808 0.988 16.478 0.33l-4.944-6.59 18.128 3.296c-3.956-8.57-30.32-24.06-36.584-17.798l-0.33-0.328z" fill="#38C20E" p-id="1530"></path><path d="M586.982 528.638m-7.25 0a7.25 7.25 0 1 0 14.5 0 7.25 7.25 0 1 0-14.5 0Z" fill="#27A600" p-id="1531"></path><path d="M593.054909 545.947716a7.368 6.464 77.761 1 0-12.63417 2.740607 7.368 6.464 77.761 1 0 12.63417-2.740607Z" fill="#D7680F" p-id="1532"></path><path d="M587.78844 545.392768a3.428 3.01 77.761 1 0-5.883176 1.27618 3.428 3.01 77.761 1 0 5.883176-1.27618Z" fill="#E59C0B" p-id="1533"></path><path d="M599.066964 536.023721a7.368 6.464 77.761 1 0-12.63417 2.740607 7.368 6.464 77.761 1 0 12.63417-2.740607Z" fill="#D7680F" p-id="1534"></path><path d="M593.81794 535.464684a3.428 3.01 77.761 1 0-5.883177 1.27618 3.428 3.01 77.761 1 0 5.883177-1.27618Z" fill="#E59C0B" p-id="1535"></path><path d="M586.020201 538.894226a6.464 7.368 14.07 1 0-12.540153-3.142889 6.464 7.368 14.07 1 0 12.540153 3.142889Z" fill="#D7680F" p-id="1536"></path><path d="M581.559337 536.062474a3.01 3.428 14.07 1 0-5.839397-1.463505 3.01 3.428 14.07 1 0 5.839397 1.463505Z" fill="#E59C0B" p-id="1537"></path><path d="M575.444 664.43c143.036 0 263.002 46.472 296.29 109.42h-592.58c33.286-62.948 153.252-109.42 296.29-109.42z" fill="#FAC014" p-id="1538"></path><path d="M644.984 333.534c1.318 1.318 2.308 2.638 3.956 3.956 23.07 24.388 65.588 81.736 76.462 176.324 14.83 131.502-39.878 201.372-39.878 201.372 24.388 10.546 45.81 13.514 63.608 6.59 0 0 43.174-85.032 8.57-224.112-27.686-111.068-81.406-161.492-101.84-176.982v-1.318c0-8.24-6.59-15.16-15.16-15.16-8.24 0-15.16 6.59-15.16 15.16 0 8.24 6.59 15.16 15.16 15.16 1.648 0 2.968-0.33 4.284-0.658v-0.332z" fill="#E84F4F" p-id="1539"></path><path d="M635.426 312.77s-132.82-39.878-156.55 12.524c-23.73 52.402-36.584 94.92-36.584 94.92l34.934-46.472 0.988 18.128 36.252-39.22-1.318 11.534 43.174-33.618-1.318 12.854 82.394-21.752-1.972-8.898zM642.018 309.474s112.056-75.142 143.696-62.29c31.308 12.854 73.166 60.642 73.166 60.642l-50.754-22.082 7.25 15.49-48.778-15.16 6.262 8.898-52.732-7.582 6.59 9.888-82.066 20.104-2.306-8.24-0.328 0.332z" fill="#38C20E" p-id="1540"></path><path d="M640.7 317.714s85.692-25.048 135.456 11.864 58.994 81.406 58.994 81.406c-20.434-13.514-33.618-33.288-61.632-40.866l4.614 22.082-43.174-39.22-0.33 14.83-35.594-24.06 0.33 13.842-42.516-23.73s-23.4-8.898-15.82-15.82l-0.328-0.328z" fill="#38C20E" p-id="1541"></path><path d="M633.78 318.374s-86.35 23.07-109.42 80.418c-23.4 57.346-8.24 100.192-8.24 100.192 10.546-22.412 11.534-45.81 31.64-66.904l7.582 21.092 16.478-56.03 7.91 12.524 17.798-39.22 6.92 12.196 24.06-42.516c-0.004 0 15.488-19.444 5.272-21.752zM635.756 304.86s-49.766-89.314-66.576-89.314c-17.14 0-77.78 60.972-77.78 60.972l-12.196 28.014 43.174-28.674v15.49l40.208-25.706-0.33 12.854s15.49-6.92 32.3 5.932c17.138 12.854 40.538 28.674 40.538 28.674l5.602-3.626-5.274-4.284 0.334-0.332z" fill="#38C20E" p-id="1542"></path><path d="M659.156 206.646c-12.854 12.854-20.434 78.768-21.092 104.478-0.33 7.91 3.956 1.976 3.956 1.976s9.558-39.22 22.082-41.196c12.524-1.976 20.104 7.91 20.104 7.91l-8.898-23.4c20.434-3.296 39.878 2.638 38.56 0.988l-11.206-15.82 42.516 7.582c-9.228-20.104-71.518-56.688-86.02-41.858v-0.66z" fill="#38C20E" p-id="1543"></path><path d="M640.704 316.392m-17.14 0a17.14 17.14 0 1 0 34.28 0 17.14 17.14 0 1 0-34.28 0Z" fill="#27A600" p-id="1544"></path><path d="M655.28411 357.19809a17.274 15.158 77.761 1 0-29.626973 6.42669 17.274 15.158 77.761 1 0 29.626973-6.42669Z" fill="#D7680F" p-id="1545"></path><path d="M642.966044 355.896394a8.044 7.056 77.761 1 0-13.79126 2.991604 8.044 7.056 77.761 1 0 13.79126-2.991604Z" fill="#E59C0B" p-id="1546"></path><path d="M669.403057 333.93816a17.274 15.158 77.761 1 0-29.626972 6.42669 17.274 15.158 77.761 1 0 29.626972-6.42669Z" fill="#D7680F" p-id="1547"></path><path d="M657.084946 332.636041a8.044 7.056 77.761 1 0-13.79126 2.991603 8.044 7.056 77.761 1 0 13.79126-2.991603Z" fill="#E59C0B" p-id="1548"></path><path d="M638.77889 340.62174a15.158 17.274 14.07 1 0-29.406503-7.370037 15.158 17.274 14.07 1 0 29.406503 7.370037Z" fill="#D7680F" p-id="1549"></path><path d="M628.297528 333.981539a7.056 8.044 14.07 1 0-13.688632-3.430728 7.056 8.044 14.07 1 0 13.688632 3.430728Z" fill="#E59C0B" p-id="1550"></path><path d="M332.878 300.904m-76.792 0a76.792 76.792 0 1 0 153.584 0 76.792 76.792 0 1 0-153.584 0Z" fill="#FAC014" p-id="1551"></path><path d="M225.102 316.068c25.378 0 46.8 15.49 56.03 37.572 4.284-1.318 9.228-1.976 13.842-1.976 15.49 0 29.332 7.582 37.572 19.446 6.59-8.898 17.468-14.83 29.332-14.83 15.49 0 28.344 9.558 33.946 22.742 2.638-0.988 5.602-1.318 8.57-1.318 15.49 0 28.014 12.524 28.014 28.014 0 4.614-0.988 8.57-2.966 12.524H117c-1.318-4.284-2.306-9.228-2.306-14.172 0-24.388 19.774-44.492 44.492-44.492 2.638 0 4.944 0.33 7.582 0.658 6.92-25.384 30.32-44.168 58.334-44.168z" fill="#BAE6FF" p-id="1552"></path></svg>