<?xml version="1.0" standalone="no"?><!DOCTYPE svg PUBLIC "-//W3C//DTD SVG 1.1//EN" "http://www.w3.org/Graphics/SVG/1.1/DTD/svg11.dtd"><svg t="1534233188223" class="icon" style="" viewBox="0 0 1024 1024" version="1.1" xmlns="http://www.w3.org/2000/svg" p-id="3366" xmlns:xlink="http://www.w3.org/1999/xlink" width="200" height="200"><defs><style type="text/css"></style></defs><path d="M512 1024C230.4 1024 0 793.6 0 512S230.4 0 512 0s512 230.4 512 512-230.4 512-512 512z" fill="#F7BE15" p-id="3367"></path><path d="M743.208 227.784l-504.456 0.016s-67.104-2.368-67.104 65.184v312.64l3.712 49.76 29.472 33.088 286.472 335c6.88 0.28 13.76 0.528 20.696 0.528 281.6 0 512-230.4 512-512 0-33.632-3.376-66.504-9.648-98.368l-271.144-185.848z" fill="#DB8E1F" p-id="3368"></path><path d="M738.48 682.728H197.128c-14.64 0-26.616-11.976-26.616-26.616v-396.88c0-14.64 11.976-26.616 26.616-26.616H738.48c14.64 0 26.616 11.976 26.616 26.616v396.88c0 14.64-11.976 26.616-26.616 26.616" fill="#E9E9EA" p-id="3369"></path><path d="M724.112 687.944h-82.656a5.914 5.914 0 0 1 0-11.824h82.664c19.72 0 35.768-16.04 35.768-35.76l-0.52-20.352a5.9 5.9 0 0 1 5.76-6.048c3.128-0.368 5.968 2.488 6.048 5.752l0.52 20.496c0 26.392-21.344 47.736-47.584 47.736M531.016 687.944H212.88c-26.232 0-47.584-21.352-47.584-47.584V273.608c0-26.232 21.352-47.592 47.584-47.592h511.24c26.232 0 47.584 21.352 47.584 47.592v192.056a5.908 5.908 0 0 1-5.912 5.912 5.908 5.908 0 0 1-5.912-5.912v-192.056c0-19.728-16.04-35.768-35.76-35.768H212.88c-19.72 0-35.76 16.04-35.76 35.768V640.36c0 19.72 16.04 35.76 35.76 35.76h318.136a5.914 5.914 0 0 1 0 11.824" fill="#474341" p-id="3370"></path><path d="M687.36 564.616l-49.984-48.728 69.08-10.032 30.888-62.6 30.896 62.6 69.072 10.032-49.984 48.728 11.8 68.792-61.784-32.48-31.784 16.712" fill="#F7BE15" p-id="3371"></path><path d="M799.136 639.32c-0.944 0-1.88-0.232-2.752-0.68l-59.04-31.032-29.032 15.256a5.886 5.886 0 0 1-7.976-2.472 5.906 5.906 0 0 1 2.472-7.976l31.784-16.712a5.88 5.88 0 0 1 5.504 0l51.192 26.912-9.776-56.992a5.914 5.914 0 0 1 1.696-5.24l41.424-40.36-57.24-8.32a5.906 5.906 0 0 1-4.456-3.232l-25.592-51.864-25.592 51.864a5.906 5.906 0 0 1-4.456 3.232l-57.232 8.32 41.424 40.36a5.928 5.928 0 0 1 0.104 8.36 5.928 5.928 0 0 1-8.36 0.104L633.24 520.12a5.914 5.914 0 0 1-1.488-6.048 5.89 5.89 0 0 1 4.768-4.024l65.992-9.584 29.52-59.816c2-4.032 8.592-4.032 10.6 0l29.512 59.816 66.008 9.584c2.232 0.328 4.08 1.88 4.768 4.024a5.88 5.88 0 0 1-1.488 6.048l-47.768 46.56 11.272 65.728a5.892 5.892 0 0 1-2.344 5.776 5.824 5.824 0 0 1-3.456 1.136" fill="#474341" p-id="3372"></path><path d="M719.448 234.704H217.552c-22.504 0-40.912 17.064-40.912 37.92v25.312h583.728v-25.312c-0.008-20.856-18.416-37.92-40.92-37.92" fill="#AEABAA" p-id="3373"></path><path d="M767.96 305.56h-0.016L194.08 303.096a4.13 4.13 0 0 1-4.112-4.152 4.132 4.132 0 0 1 4.128-4.12h0.024l573.856 2.456a4.136 4.136 0 0 1 4.12 4.152 4.144 4.144 0 0 1-4.136 4.128" fill="#474341" p-id="3374"></path><path d="M226.08 266.312a9.728 9.728 0 1 1-19.458 0 9.728 9.728 0 0 1 19.458 0" fill="#E9495B" p-id="3375"></path><path d="M216.36 280.176c-7.64 0-13.864-6.224-13.864-13.856 0-7.64 6.216-13.864 13.864-13.864 7.64 0 13.864 6.224 13.864 13.864-0.008 7.632-6.224 13.856-13.864 13.856m0-19.448a5.592 5.592 0 0 0-5.592 5.592 5.59 5.59 0 0 0 11.184 0 5.592 5.592 0 0 0-5.592-5.592" fill="#474341" p-id="3376"></path><path d="M271.232 266.312a9.728 9.728 0 1 1-19.458 0 9.728 9.728 0 0 1 19.458 0" fill="#F7BE15" p-id="3377"></path><path d="M261.512 280.176c-7.64 0-13.864-6.224-13.864-13.856 0-7.64 6.216-13.864 13.864-13.864 7.632 0 13.856 6.224 13.856 13.864 0 7.632-6.224 13.856-13.856 13.856m0-19.448a5.592 5.592 0 0 0-5.592 5.592 5.59 5.59 0 1 0 5.592-5.592" fill="#474341" p-id="3378"></path><path d="M316.376 266.312a9.728 9.728 0 1 1-19.458 0 9.728 9.728 0 0 1 19.458 0" fill="#92BE33" p-id="3379"></path><path d="M306.656 280.176c-7.632 0-13.856-6.224-13.856-13.856 0-7.64 6.224-13.864 13.856-13.864 7.64 0 13.864 6.224 13.864 13.864-0.008 7.632-6.224 13.856-13.864 13.856m0-19.448a5.59 5.59 0 1 0 5.592 5.592 5.592 5.592 0 0 0-5.592-5.592M590.728 640.328h-45.4a4.132 4.132 0 0 1-4.136-4.136c0-2.288 1.848-4.136 4.136-4.136h45.4c2.288 0 4.136 1.848 4.136 4.136s-1.848 4.136-4.136 4.136M344.84 641.36c-56.28 0-112.576-0.344-170.896-1.032a4.136 4.136 0 0 1 0.056-8.272h0.048a14041.66 14041.66 0 0 0 341.464 0h0.048a4.136 4.136 0 0 1 0.048 8.272c-58.232 0.696-114.488 1.032-170.768 1.032" fill="#474341" p-id="3380"></path><path d="M305.96 410.68c0 27.616-22.392 50.008-50.008 50.008s-50.008-22.392-50.008-50.008 22.392-50.008 50.008-50.008 50.008 22.384 50.008 50.008" fill="#3AB394" p-id="3381"></path><path d="M255.952 464.824c-29.856 0-54.144-24.288-54.144-54.144 0-29.856 24.296-54.144 54.144-54.144s54.144 24.296 54.144 54.144c0 29.856-24.288 54.144-54.144 54.144m0-100.024c-25.296 0-45.872 20.576-45.872 45.872s20.576 45.872 45.872 45.872 45.872-20.576 45.872-45.872-20.576-45.872-45.872-45.872" fill="#474341" p-id="3382"></path><path d="M518.512 410.68c0 27.616-22.392 50.008-50.008 50.008s-50.008-22.392-50.008-50.008 22.392-50.008 50.008-50.008 50.008 22.384 50.008 50.008" fill="#3AB394" p-id="3383"></path><path d="M468.496 464.824c-29.856 0-54.144-24.288-54.144-54.144 0-29.856 24.296-54.144 54.144-54.144 29.856 0 54.144 24.296 54.144 54.144 0.008 29.856-24.288 54.144-54.144 54.144m0-100.024c-25.296 0-45.872 20.576-45.872 45.872s20.576 45.872 45.872 45.872 45.872-20.576 45.872-45.872S493.8 364.8 468.496 364.8" fill="#474341" p-id="3384"></path><path d="M731.056 410.68c0 27.616-22.392 50.008-50.008 50.008s-50.008-22.392-50.008-50.008 22.392-50.008 50.008-50.008 50.008 22.384 50.008 50.008" fill="#3AB394" p-id="3385"></path><path d="M681.048 464.824c-29.856 0-54.144-24.288-54.144-54.144 0-29.856 24.296-54.144 54.144-54.144s54.144 24.296 54.144 54.144c0 29.856-24.288 54.144-54.144 54.144m0-100.024c-25.296 0-45.872 20.576-45.872 45.872s20.576 45.872 45.872 45.872 45.872-20.576 45.872-45.872-20.576-45.872-45.872-45.872M405.472 412.92h-0.024l-5.504-0.032a4.132 4.132 0 0 1-4.112-4.16c0.016-2.296 1.728-3.952 4.16-4.112l5.504 0.032a4.136 4.136 0 0 1-0.024 8.272m-19.68-0.096h-0.024l-5.496-0.024a4.136 4.136 0 0 1 0.016-8.272h0.016l5.504 0.024a4.13 4.13 0 0 1 4.112 4.152c0 2.272-1.848 4.12-4.128 4.12m-19.68-0.104h-0.016l-5.504-0.024a4.136 4.136 0 0 1 0.016-8.272h0.016l5.504 0.024a4.14 4.14 0 0 1 4.12 4.152 4.144 4.144 0 0 1-4.136 4.12m-19.688-0.096h-0.024l-5.504-0.032a4.136 4.136 0 0 1 0.024-8.272h0.024l5.496 0.032a4.132 4.132 0 0 1 4.112 4.16 4.124 4.124 0 0 1-4.128 4.112m-19.68-0.104h-0.016l-5.504-0.024c-2.288-0.008-4.128-1.872-4.12-4.152s1.856-4.112 4.136-4.112h0.016l5.504 0.024a4.136 4.136 0 0 1 4.12 4.152 4.14 4.14 0 0 1-4.136 4.112M618.016 412.384h-0.064l-5.504-0.08a4.148 4.148 0 0 1-4.072-4.208 4.138 4.138 0 0 1 4.136-4.064h0.064l5.504 0.08a4.136 4.136 0 0 1-0.064 8.272m-19.688-0.296h-0.064l-5.504-0.08a4.136 4.136 0 0 1 0.064-8.272h0.064l5.504 0.08c2.28 0.04 4.104 1.92 4.072 4.208a4.138 4.138 0 0 1-4.136 4.064m-19.672-0.296h-0.072l-5.512-0.088a4.14 4.14 0 0 1-4.072-4.2 4.136 4.136 0 0 1 4.136-4.064h0.072l5.512 0.088c2.288 0.04 4.104 1.92 4.072 4.208a4.136 4.136 0 0 1-4.136 4.056m-19.68-0.296h-0.064l-5.504-0.088a4.136 4.136 0 0 1-4.072-4.2 4.138 4.138 0 0 1 4.136-4.064h0.064l5.504 0.08a4.136 4.136 0 0 1-0.064 8.272m-19.688-0.304h-0.064l-5.504-0.08a4.142 4.142 0 0 1-4.072-4.2 4.144 4.144 0 0 1 4.136-4.072h0.064l5.504 0.08c2.28 0.032 4.104 1.92 4.072 4.2a4.134 4.134 0 0 1-4.136 4.072M615.76 515.296H319.856c-2.288 0-4.136-1.848-4.136-4.136s1.848-4.136 4.136-4.136H615.76c2.288 0 4.136 1.848 4.136 4.136a4.132 4.132 0 0 1-4.136 4.136M333.744 550.048a4.136 4.136 0 0 1-0.008-8.272l255.792-0.56h0.008a4.136 4.136 0 0 1 0.008 8.272l-255.784 0.568h-0.016v-0.008z" fill="#474341" p-id="3386"></path><path d="M495.04 793.024c-8.912-8.912-8.912-23.496 0-32.416l228.624-228.632c8.912-8.912 23.504-8.912 32.424 0 8.912 8.912 8.912 23.504 0 32.424L527.456 793.024c-8.92 8.92-23.504 8.92-32.416 0" fill="#AEABAA" p-id="3387"></path><path d="M511.248 805.616c-7.72 0-14.96-2.992-20.384-8.424s-8.424-12.664-8.424-20.384 3-14.96 8.424-20.384L719.48 527.792c11.256-11.232 29.544-11.232 40.768 0a28.618 28.618 0 0 1 8.424 20.384c0 7.712-2.992 14.952-8.424 20.384L531.632 797.2a28.656 28.656 0 0 1-20.384 8.416m228.624-274.424c-4.368 0-8.72 1.664-12.04 4.968L499.216 764.784c-3.2 3.2-4.952 7.472-4.952 12.032s1.76 8.832 4.952 12.032c6.4 6.384 17.664 6.384 24.064 0l228.624-228.624c3.192-3.2 4.96-7.472 4.96-12.032s-1.768-8.832-4.96-12.032a16.976 16.976 0 0 0-12.032-4.968" fill="#474341" p-id="3388"></path><path d="M699.6 625.016c-1.056 0-2.12-0.408-2.92-1.216l-32.424-32.416a4.12 4.12 0 0 1 0-5.848 4.148 4.148 0 0 1 5.848 0l32.424 32.416a4.14 4.14 0 1 1-2.928 7.064" fill="#474341" p-id="3389"></path><path d="M842.888 480.256l-22.24-7.544-18.816 14.048 0.296-23.488-19.176-13.552 22.432-6.976 6.968-22.424 13.56 19.176 23.48-0.304-14.048 18.824z" fill="#DD9D00" p-id="3390"></path><path d="M801.824 490.888c-0.648 0-1.28-0.144-1.88-0.448a4.14 4.14 0 0 1-2.256-3.744l0.28-21.304-17.392-12.304c-1.28-0.912-1.944-2.472-1.696-4.024s1.36-2.84 2.856-3.304l20.352-6.336 6.32-20.352a4.138 4.138 0 0 1 3.304-2.856 4.176 4.176 0 0 1 4.016 1.696l12.312 17.408 21.288-0.28h0.056c1.552 0 2.984 0.872 3.688 2.256a4.136 4.136 0 0 1-0.376 4.352l-12.736 17.072 6.848 20.176c0.504 1.488 0.12 3.136-0.992 4.256a4.172 4.172 0 0 1-4.256 0.992l-20.184-6.832-17.08 12.736c-0.728 0.56-1.6 0.84-2.472 0.84m-9.64-39.712l12.336 8.72a4.16 4.16 0 0 1 1.752 3.44l-0.2 15.088 12.104-9.024a4.206 4.206 0 0 1 3.8-0.6l14.312 4.848-4.856-14.304a4.14 4.14 0 0 1 0.6-3.8l9.024-12.104-15.088 0.192h-0.056a4.14 4.14 0 0 1-3.376-1.744l-8.72-12.336-4.488 14.424a4.12 4.12 0 0 1-2.72 2.712l-14.424 4.488zM510.808 800.856a4.136 4.136 0 0 1-4.136-4.112l-0.28-45.576a4.136 4.136 0 0 1 4.112-4.16h0.024c2.272 0 4.12 1.832 4.136 4.112l0.288 45.576a4.136 4.136 0 0 1-4.112 4.16h-0.032zM529.28 772.56a4.132 4.132 0 0 1-4.136-4.136v-38.12c0-2.28 1.848-4.128 4.136-4.128 2.288 0 4.136 1.848 4.136 4.128v38.12a4.132 4.132 0 0 1-4.136 4.136M545.952 757.36a4.132 4.132 0 0 1-4.136-4.136v-42.72a4.136 4.136 0 0 1 8.272 0v42.72a4.126 4.126 0 0 1-4.136 4.136M562.272 739.312a4.132 4.132 0 0 1-4.136-4.136v-39.592c0-2.288 1.848-4.136 4.136-4.136 2.288 0 4.136 1.848 4.136 4.136v39.592a4.132 4.132 0 0 1-4.136 4.136M578.592 721.936a4.132 4.132 0 0 1-4.136-4.136v-41.68c0-2.288 1.848-4.136 4.136-4.136s4.136 1.848 4.136 4.136v41.68a4.132 4.132 0 0 1-4.136 4.136M595.488 704.192a4.14 4.14 0 0 1-4.136-4.072l-0.568-35.392a4.14 4.14 0 0 1 4.072-4.2c2.352 0.12 4.16 1.784 4.2 4.064l0.568 35.392a4.14 4.14 0 0 1-4.072 4.2h-0.064v0.008zM612.632 685.472a4.132 4.132 0 0 1-4.136-4.136v-33.344c0-2.288 1.848-4.136 4.136-4.136 2.288 0 4.136 1.848 4.136 4.136v33.344a4.132 4.132 0 0 1-4.136 4.136M629.304 674.008c-2.24 0-4.08-1.784-4.136-4.032l-1.04-40.632a4.142 4.142 0 0 1 4.032-4.24h0.104c2.24 0 4.08 1.784 4.136 4.032l1.04 40.632a4.142 4.142 0 0 1-4.032 4.24h-0.104zM644.032 656.296h-0.12a4.154 4.154 0 0 1-4.016-4.256l1.04-35.424c0.064-2.28 2.168-4.208 4.256-4.016 2.28 0.072 4.08 1.976 4.016 4.256l-1.04 35.424a4.132 4.132 0 0 1-4.136 4.016M662.64 641.712h-0.12a4.14 4.14 0 0 1-4.016-4.256l1.04-36.464c0.064-2.28 1.736-4.024 4.256-4.016a4.14 4.14 0 0 1 4.016 4.256l-1.04 36.464a4.14 4.14 0 0 1-4.136 4.016" fill="#474341" p-id="3391"></path><path d="M753.016 535.208c-6.992-6.992-19.64-5.784-28.104 2.68l-51.64 51.64 25.424 25.424 51.64-51.64c8.464-8.464 9.672-21.112 2.68-28.104" fill="#FDFBF8" p-id="3392"></path></svg>